<?xml version="1.0" encoding="utf-8"?>
<!-- Generated by IcoMoon.io -->
<!DOCTYPE svg PUBLIC "-//W3C//DTD SVG 1.1//EN" "http://www.w3.org/Graphics/SVG/1.1/DTD/svg11.dtd">
<svg version="1.1" xmlns="http://www.w3.org/2000/svg" xmlns:xlink="http://www.w3.org/1999/xlink" viewBox="0 0 34 32">
<path fill="#54af30" d="M21.49 6.118h-10.824c-0.26 0-0.471-0.211-0.471-0.471v-2.824c0-0.26 0.211-0.471 0.471-0.471h2.652c0.308-1.251 1.451-2.178 2.771-2.178s2.464 0.927 2.771 2.178h2.63c0.26 0 0.471 0.211 0.471 0.471v2.824c0 0.26-0.211 0.471-0.471 0.471zM11.137 5.176h9.882v-1.882h-2.557c-0.244 0-0.448-0.187-0.469-0.43-0.084-0.98-0.92-1.747-1.904-1.747s-1.82 0.768-1.904 1.747c-0.021 0.244-0.224 0.43-0.469 0.43h-2.579v1.882z"></path>
<path fill="#54af30" d="M17.137 3.265c0 0.585-0.474 1.059-1.059 1.059s-1.059-0.474-1.059-1.059c0-0.585 0.474-1.059 1.059-1.059s1.059 0.474 1.059 1.059z"></path>
<path fill="#54af30" d="M22.902 17.882c0.39 0 0.706-0.316 0.706-0.706s-0.316-0.706-0.706-0.706h-4.88c-0.289 0.418-0.498 0.896-0.602 1.412h5.481z"></path>
<path fill="#54af30" d="M13.725 13.412c-0.39 0-0.706 0.316-0.706 0.706 0 0.277 0.162 0.515 0.394 0.631 0.238-0.472 0.516-0.919 0.832-1.336h-0.52z"></path>
<path fill="#54af30" d="M13.49 11.765h2.39c0.805-0.62 1.72-1.104 2.712-1.412h-5.103c-0.39 0-0.706 0.316-0.706 0.706s0.316 0.706 0.706 0.706z"></path>
<path fill="#54af30" d="M13.45 22.592c-0.371 0.022-0.665 0.326-0.665 0.702 0 0.39 0.316 0.706 0.706 0.706h0.867c-0.346-0.437-0.65-0.908-0.907-1.408z"></path>
<path fill="#54af30" d="M22.196 20.235c0-0.39-0.316-0.706-0.706-0.706h-4.035c0.126 0.52 0.358 0.999 0.672 1.412h3.362c0.39 0 0.706-0.316 0.706-0.706z"></path>
<path fill="#54af30" d="M23.372 6.118h1.647v4.756c0.326 0.163 0.64 0.344 0.941 0.545v-5.772c0-0.26-0.211-0.471-0.471-0.471h-2.118c-0.26 0-0.471 0.211-0.471 0.471s0.211 0.471 0.471 0.471z"></path>
<path fill="#54af30" d="M25.329 26.237c-0.102 0.056-0.206 0.105-0.309 0.157v0.9h-3.498c-0.12 0.005-0.24 0.012-0.36 0.012-0.15 0-0.3-0.004-0.448-0.012h-13.812v-21.176h1.882c0.26 0 0.471-0.211 0.471-0.471s-0.211-0.471-0.471-0.471h-2.353c-0.26 0-0.471 0.211-0.471 0.471v22.118c0 0.26 0.211 0.471 0.471 0.471h19.059c0.26 0 0.471-0.211 0.471-0.471v-0.896l-0.632-0.631z"></path>
<path fill="#54af30" d="M28.763 22.804l0.022 0.022v-0.064c-0.008 0.014-0.014 0.028-0.022 0.042z"></path>
<path fill="#54af30" d="M23.608 3.765h2.118c0.908 0 1.647 0.739 1.647 1.647v7.183c0.553 0.568 1.030 1.211 1.412 1.913v-9.096c0-1.687-1.372-3.059-3.059-3.059h-2.118c-0.39 0-0.706 0.316-0.706 0.706s0.316 0.706 0.706 0.706z"></path>
<path fill="#54af30" d="M27.35 28.258c-0.124 0.786-0.805 1.389-1.625 1.389h-19.529c-0.908 0-1.647-0.739-1.647-1.647v-22.588c0-0.908 0.739-1.647 1.647-1.647h2.353c0.39 0 0.706-0.316 0.706-0.706s-0.316-0.706-0.706-0.706h-2.353c-1.687 0-3.059 1.372-3.059 3.059v22.588c0 1.687 1.372 3.059 3.059 3.059h19.529c1.195 0 2.23-0.691 2.733-1.692l-1.108-1.108z"></path>
<path fill="#54af30" d="M31.038 27.409l-4.39-4.389c0.96-1.202 1.535-2.726 1.535-4.384 0-3.879-3.145-7.024-7.023-7.024s-7.024 3.145-7.024 7.024c0 3.878 3.145 7.023 7.024 7.023 1.658 0 3.182-0.576 4.384-1.535l4.39 4.39c0.152 0.152 0.354 0.228 0.552 0.228s0.4-0.076 0.552-0.228c0.304-0.305 0.304-0.8 0-1.105zM21.161 24.098c-3.017 0-5.463-2.446-5.463-5.463s2.446-5.463 5.463-5.463c3.016 0 5.463 2.446 5.463 5.463s-2.446 5.463-5.463 5.463z"></path>
<path fill="#54af30" d="M10.972 10.943c0 0.45-0.365 0.814-0.814 0.814s-0.814-0.365-0.814-0.814c0-0.45 0.365-0.814 0.814-0.814s0.814 0.365 0.814 0.814z"></path>
<path fill="#54af30" d="M10.972 14.061c0 0.45-0.365 0.814-0.814 0.814s-0.814-0.365-0.814-0.814c0-0.45 0.365-0.814 0.814-0.814s0.814 0.365 0.814 0.814z"></path>
<path fill="#54af30" d="M10.972 17.178c0 0.45-0.365 0.814-0.814 0.814s-0.814-0.365-0.814-0.814c0-0.45 0.365-0.814 0.814-0.814s0.814 0.365 0.814 0.814z"></path>
<path fill="#54af30" d="M10.972 20.296c0 0.45-0.365 0.814-0.814 0.814s-0.814-0.365-0.814-0.814c0-0.45 0.365-0.814 0.814-0.814s0.814 0.365 0.814 0.814z"></path>
<path fill="#54af30" d="M10.972 23.414c0 0.45-0.365 0.814-0.814 0.814s-0.814-0.365-0.814-0.814c0-0.45 0.365-0.814 0.814-0.814s0.814 0.365 0.814 0.814z"></path>
</svg>
