<?xml version="1.0" encoding="utf-8"?>
<!-- Generator: Adobe Illustrator 21.0.0, SVG Export Plug-In . SVG Version: 6.00 Build 0)  -->
<svg version="1.1" id="Capa_1" xmlns="http://www.w3.org/2000/svg" xmlns:xlink="http://www.w3.org/1999/xlink" x="0px" y="0px"
	 viewBox="0 0 300 300" style="enable-background:new 0 0 300 300;" xml:space="preserve">
<style type="text/css">
	.st0{fill:#EA5693;stroke:#FFFFFF;stroke-width:7;stroke-miterlimit:10;}
</style>
<path class="st0" d="M300.9,124.5c0-8.9-3.5-17.3-9.8-23.5c-6.3-6.3-14.7-9.6-23.6-9.5h-57.3l-8,1h-2.4c5.3-11,8-21.6,8-31.9
	c0-13-1.9-23.3-5.8-30.9c-3.9-7.6-9.5-13.3-16.9-16.9S169.3,7.4,160,7.4c-5.6,0-10.6,2-14.9,6.1c-4.8,4.6-8.2,10.6-10.3,17.9
	s-3.8,14.3-5.1,21s-3.2,11.4-5.9,14.2c-5.4,5.9-11.3,13-17.8,21.3c-5.9,7.7-10.8,13.7-14.7,18l-1.1-7.5c-4.9-8.4-14-14.2-24.5-14.2
	H27.1c-15.4,0-28,12.5-28,28V257c0,15.4,12.5,28,28,28h38.6c9.4,0,17.7-4.6,22.7-11.7l17,8.5c12.2,6.1,32.4,10.9,46,10.9h82.9
	c18.4,0,33.3-15,33.3-33.3v-1.7c0-4.4-0.9-8.5-2.4-12.3c11.8-5.1,20.1-16.9,20.1-30.6V213c0-4.7-1-9.2-2.7-13.2
	c10.8-5.5,18.2-16.8,18.2-29.7v-1.7c0-8.2-3-15.7-7.9-21.5c4.9-5.8,7.9-13.3,7.9-21.5v-0.9C300.8,124.5,300.9,124.5,300.9,124.5z
	 M65.7,261.3H27.1c-2.3,0-4.2-1.9-4.2-4.2v-145c0-2.3,1.9-4.2,4.2-4.2h38.6c2.3,0,4.2,1.9,4.2,4.2v141.3c0,0.4-0.1,0.7-0.1,0.9
	c-0.1,1.5-0.2,2.9-0.3,4.4C69,260.2,67.4,261.3,65.7,261.3z M277.2,125.5c0,5.3-4.3,9.6-9.6,9.6l0,0h-23.1
	c-6.6,0-11.9,5.3-11.9,11.9c0,6.6,5.3,11.9,11.9,11.9h23.1c5.3,0,9.6,4.3,9.6,9.6v1.7c0,5.3-4.3,9.6-9.6,9.6h-29.5
	c-6.6,0-11.9,5.3-11.9,11.9s5.3,11.9,11.9,11.9h14c5.3,0,9.6,4.3,9.6,9.6v1.7c0,5.3-4.3,9.6-9.6,9.6h-31.7
	c-6.6,0-11.9,5.3-11.9,11.9s5.3,11.9,11.9,11.9h14c5.3,0,9.6,4.3,9.6,9.6v1.7c0,5.3-4.3,9.6-9.6,9.6h-82.9c-9.9,0-26.5-3.9-35.4-8.3
	l-22.6-11.3l0.2-1.1V132.2c1.4-0.9,2.9-1.9,4.4-3.2c2.3-2,4.4-4,6.4-5.9s4.2-4.4,6.6-7.3s4.3-5.3,5.7-7.1c1.4-1.8,3.1-4,5.2-6.8
	s3.4-4.4,3.8-5c6.1-7.5,10.4-12.6,12.8-15.1c4.5-4.8,7.8-10.8,9.9-18.2c2.1-7.4,3.7-14.3,5.1-20.8c1.3-6.5,3.4-11.2,6.3-14.1
	c10.6,0,17.7,2.6,21.3,7.8c3.5,5.2,5.3,13.2,5.3,24.1c0,6.5-2.7,15.4-8,26.7c-1.4,3-2.7,5.9-3.7,8.6l-0.6,0.1c-1.9,2.1-3,4.9-3,7.9
	c0,6.5,5.3,11.5,11.9,11.5h84.6c2.5,0,4.9,0.7,6.7,2.5c1.8,1.8,2.8,4.2,2.8,6.7L277.2,125.5L277.2,125.5z"/>
</svg>
