<?xml version="1.0" encoding="utf-8"?>
<!-- Generated by IcoMoon.io -->
<!DOCTYPE svg PUBLIC "-//W3C//DTD SVG 1.1//EN" "http://www.w3.org/Graphics/SVG/1.1/DTD/svg11.dtd">
<svg version="1.1" xmlns="http://www.w3.org/2000/svg" xmlns:xlink="http://www.w3.org/1999/xlink" viewBox="0 0 43 32">
<path fill="#814697" d="M25.241 31.167c-8.378 0-15.194-6.816-15.194-15.194 0-3.313 1.047-6.461 3.029-9.105l-0.622-0.466c-2.083 2.779-3.184 6.088-3.184 9.571 0 8.807 7.165 15.972 15.972 15.972 1.849 0 3.662-0.313 5.387-0.931l-0.262-0.732c-1.641 0.588-3.365 0.886-5.124 0.886z"></path>
<path fill="#814697" d="M25.241 0c-0.587 0-1.18 0.032-1.76 0.096l0.085 0.773c0.553-0.061 1.116-0.092 1.676-0.092 2.346 0 4.596 0.52 6.687 1.547l0.343-0.698c-2.198-1.079-4.563-1.626-7.030-1.626z"></path>
<path fill="#5db7d4" d="M34.036 4.827c-0.33-0.33-0.769-0.512-1.237-0.512s-0.906 0.182-1.237 0.512l-0.55 0.55c-0.558 0.558-0.659 1.402-0.304 2.063-0.488 0.138-0.943 0.377-1.344 0.71-0.398-0.333-0.852-0.568-1.35-0.7 0.139-0.254 0.213-0.539 0.213-0.836 0-0.467-0.182-0.906-0.512-1.237l-0.55-0.55c-0.33-0.33-0.769-0.512-1.237-0.512s-0.906 0.182-1.237 0.512l-8.245 8.245c-0.33 0.33-0.512 0.77-0.512 1.237s0.182 0.906 0.512 1.237l0.55 0.55c0.33 0.33 0.769 0.512 1.237 0.512 0.297 0 0.583-0.074 0.836-0.213 0.13 0.493 0.361 0.942 0.688 1.337l-0.552 0.552c-0.833 0.833-0.839 2.184-0.012 3.011 0.42 0.42 0.971 0.63 1.522 0.63 0.021 0 0.043-0.002 0.064-0.003-0.020 0.571 0.183 1.146 0.617 1.58 0.415 0.414 0.959 0.621 1.504 0.621 0.025 0 0.051-0.003 0.076-0.003-0.001 0.023-0.004 0.046-0.004 0.069-0.003 0.572 0.218 1.135 0.622 1.539 0.403 0.403 0.936 0.652 1.504 0.652 0.002 0 0.003 0 0.004 0 0.025 0 0.050-0.027 0.075-0.028-0.001 0.021-0.003 0.029-0.003 0.050 0 0.571 0.223 1.102 0.626 1.505s0.941 0.623 1.511 0.623c0.571 0 1.108-0.224 1.512-0.628l0.54-0.541 0.516 0.516c0.404 0.404 0.941 0.626 1.511 0.626s1.108-0.223 1.511-0.626c0.403-0.403 0.628-0.935 0.635-1.497 0-0.025-0.002-0.049-0.003-0.074 0.023 0.001 0.045 0.003 0.067 0.003 0.547 0 1.093-0.207 1.508-0.623 0.413-0.414 0.622-0.931 0.627-1.473 0.018 0 0.035 0.027 0.053 0.027 0.004 0 0.008 0 0.012 0 0.571 0 1.106-0.286 1.507-0.687 0.403-0.403 0.627-0.991 0.63-1.558 0-0.027-0.003-0.059-0.004-0.086 0.017 0 0.035-0.001 0.052-0.001 0.547 0 1.095-0.21 1.511-0.627 0.833-0.833 0.834-2.19 0-3.024l-0.531-0.532c0.315-0.393 0.54-0.85 0.668-1.348 0.259 0.147 0.552 0.226 0.858 0.226 0.467 0 0.906-0.182 1.237-0.512l0.55-0.55c0.682-0.682 0.682-1.792 0-2.474l-8.244-8.244zM17.821 15.27l-0.55-0.55c-0.11-0.11-0.171-0.257-0.171-0.413s0.061-0.302 0.171-0.412l8.245-8.245c0.11-0.11 0.256-0.171 0.412-0.171s0.302 0.061 0.412 0.171l0.55 0.55c0.11 0.11 0.171 0.257 0.171 0.412s-0.061 0.302-0.17 0.412l-8.245 8.245c-0.22 0.22-0.604 0.22-0.825 0zM20.018 20.47c-0.379-0.379-0.373-0.977 0.012-1.363l0.54-0.54 1.374 1.374-0.486 0.485c-0.022 0.017-0.044 0.033-0.065 0.053-0.376 0.377-0.993 0.372-1.375-0.010zM22.22 22.677c-0.375-0.376-0.372-0.991 0.008-1.371l0.54-0.54 1.374 1.375-0.45 0.45c-0.038 0.023-0.074 0.050-0.107 0.083-0.378 0.378-0.99 0.379-1.366 0.004zM24.419 24.875c-0.376-0.376-0.372-0.991 0.008-1.371l0.54-0.54 1.374 1.374-0.451 0.451c-0.037 0.023-0.073 0.050-0.106 0.082-0.377 0.378-0.99 0.379-1.366 0.003zM28 27.078c-0.183 0.183-0.427 0.284-0.687 0.284s-0.504-0.101-0.687-0.284c-0.379-0.379-0.379-0.996 0-1.374l0.54-0.54 1.374 1.374-0.54 0.54zM38.675 20.458c-0.183 0.183-0.428 0.285-0.687 0.285s-0.504-0.101-0.687-0.285l-4.364-4.364c-0.228-0.228-0.597-0.228-0.824 0s-0.228 0.597 0 0.825l4.364 4.364c0.003 0.003 0.006 0.005 0.010 0.009s0.004 0.006 0.007 0.009c0.374 0.374 0.371 0.988-0.008 1.367s-0.999 0.377-1.383-0.007l-4.364-4.361c-0.227-0.228-0.597-0.223-0.824 0.005s-0.228 0.607 0 0.835l4.364 4.385c0.045 0.045 0.093 0.089 0.142 0.131 0.241 0.373 0.197 0.88-0.133 1.21-0.379 0.379-0.999 0.375-1.382-0.008l-4.364-4.364c-0.228-0.228-0.597-0.228-0.824 0s-0.228 0.597 0 0.824l4.364 4.364c0.004 0.004 0.008 0.007 0.012 0.011 0.002 0.002 0.003 0.004 0.005 0.006 0.181 0.181 0.279 0.42 0.276 0.672-0.003 0.255-0.107 0.499-0.293 0.685-0.184 0.184-0.428 0.285-0.687 0.285s-0.504-0.101-0.687-0.285l-9.894-9.894c-0.456-0.456-0.691-1.028-0.702-1.705l6.967-6.967c0.554 0.009 1.037 0.171 1.445 0.479l-4.919 4.919c-0.687 0.687-0.702 1.791-0.033 2.459l0.549 0.55c0.344 0.344 0.806 0.517 1.266 0.517 0.453 0 0.905-0.167 1.24-0.503l1.787-1.787c0.692 0.53 1.714 0.485 2.335-0.137l1.914-1.914 6.013 6.013c0.183 0.183 0.285 0.428 0.285 0.687s-0.102 0.503-0.285 0.687zM33.38 12.14c0.008-0.159-0.046-0.321-0.168-0.443-0.228-0.228-0.597-0.228-0.824 0l-2.464 2.464c-0.225 0.225-0.626 0.218-0.858-0.014l-0.251-0.251c-0.219-0.219-0.606-0.219-0.825 0l-2.189 2.189c-0.225 0.225-0.626 0.218-0.858-0.014l-0.55-0.55c-0.133-0.133-0.157-0.285-0.154-0.389 0.004-0.155 0.071-0.305 0.188-0.422l5.487-5.487c0.002-0.002 0.003-0.004 0.004-0.005s0.004-0.003 0.005-0.004c0.474-0.474 1.060-0.73 1.706-0.748l6.966 6.966c-0.010 0.551-0.171 1.053-0.461 1.462l-4.754-4.755zM41.457 14.72l-0.55 0.55c-0.22 0.22-0.604 0.22-0.824 0l-8.245-8.245c-0.227-0.227-0.227-0.597 0-0.825l0.55-0.55c0.11-0.11 0.257-0.171 0.413-0.171s0.302 0.061 0.412 0.171l8.245 8.245c0.227 0.228 0.227 0.598 0 0.825z"></path>
<path fill="#808080" d="M19.531 3.864h-0.593v0.96h-0.689v-0.96h-2.011v-0.545l2.011-2.909h0.689v2.866h0.593v0.587zM18.248 3.277v-1.105c0-0.393 0.010-0.716 0.030-0.967h-0.024c-0.056 0.133-0.145 0.293-0.265 0.482l-1.093 1.59h1.352z"></path>
</svg>
