<?xml version="1.0" encoding="utf-8"?>
<!-- Generated by IcoMoon.io -->
<!DOCTYPE svg PUBLIC "-//W3C//DTD SVG 1.1//EN" "http://www.w3.org/Graphics/SVG/1.1/DTD/svg11.dtd">
<svg version="1.1" xmlns="http://www.w3.org/2000/svg" xmlns:xlink="http://www.w3.org/1999/xlink" viewBox="0 0 43 32">
<path fill="#814697" d="M35.985 26.716c-1.572 1.572-3.429 2.754-5.454 3.505-1.097 0.399-2.242 0.675-3.371 0.822-0.057 0.007-0.113 0.014-0.17 0.021-0.109 0.013-0.218 0.025-0.327 0.036-0.207 0.019-0.414 0.035-0.623 0.046-0.029 0.002-0.058 0.003-0.087 0.004-0.237 0.011-0.474 0.017-0.713 0.017-5.379 0-10.409-2.888-13.127-7.537l-0.671 0.392c2.857 4.887 8.144 7.922 13.798 7.922 0.020 0 0.040-0.001 0.061-0.002v0.002c0.238 0 0.478-0.008 0.717-0.019 0.012-0 0.023-0.001 0.035-0.002 0.254-0.013 0.509-0.031 0.764-0.056 0.011-0.001 0.022-0.003 0.032-0.003 0.225-0.023 0.45-0.051 0.675-0.083 0.041-0.006 0.082-0.011 0.123-0.017 0.211-0.032 0.422-0.069 0.632-0.109 0.072-0.014 0.144-0.029 0.216-0.043 0.21-0.043 0.421-0.089 0.63-0.141 0.021-0.005 0.042-0.011 0.063-0.017 0.235-0.059 0.469-0.124 0.701-0.194 0.001-0 0.003-0.001 0.004-0.001 0.996-0.298 1.965-0.689 2.876-1.174l-0.008-0.015c1.371-0.734 2.641-1.674 3.771-2.804l-0.55-0.549z"></path>
<path fill="#814697" d="M25.241 0c-0.734 0-1.472 0.050-2.194 0.15l0.106 0.77c0.687-0.094 1.389-0.142 2.088-0.142 4.308 0 8.431 1.84 11.31 5.048l0.579-0.519c-3.027-3.372-7.361-5.306-11.889-5.306z"></path>
<path fill="#814697" d="M13.546 6.271l-0.598-0.497c-0.733 0.882-1.371 1.845-1.898 2.861l0.69 0.358c0.501-0.966 1.108-1.882 1.805-2.721z"></path>
<path fill="#5db7d4" d="M41.042 8.114h-18.656c-1.179 0-2.138 0.959-2.138 2.138v12.437c0 1.179 0.959 2.138 2.138 2.138h18.656c1.179 0 2.138-0.959 2.138-2.138v-12.437c0-1.179-0.959-2.138-2.138-2.138zM35.506 15.58l6.491-5.492c0.009 0.054 0.017 0.108 0.017 0.164v12.437c0 0.038-0.007 0.073-0.011 0.109l-6.496-7.218zM41.042 9.28c0.032 0 0.062 0.006 0.093 0.009l-9.421 7.972-9.421-7.972c0.031-0.003 0.061-0.009 0.093-0.009h18.656zM21.426 22.798c-0.004-0.037-0.011-0.072-0.011-0.109v-12.437c0-0.056 0.007-0.11 0.017-0.164l6.491 5.492-6.496 7.218zM22.387 23.66c-0.053 0-0.103-0.007-0.154-0.016l6.58-7.311 2.525 2.136c0.109 0.092 0.243 0.138 0.377 0.138s0.268-0.046 0.377-0.138l2.525-2.136 6.58 7.311c-0.051 0.008-0.101 0.016-0.154 0.016h-18.656z"></path>
<path fill="#5db7d4" d="M14.614 20.551h-4.664c-0.322 0-0.583 0.261-0.583 0.583s0.261 0.583 0.583 0.583h4.664c0.322 0 0.583-0.261 0.583-0.583s-0.261-0.583-0.583-0.583z"></path>
<path fill="#5db7d4" d="M14.614 17.441h-7.773c-0.322 0-0.583 0.261-0.583 0.583s0.261 0.583 0.583 0.583h7.773c0.322 0 0.583-0.261 0.583-0.583s-0.261-0.583-0.583-0.583z"></path>
<path fill="#5db7d4" d="M14.614 14.332h-10.882c-0.322 0-0.583 0.261-0.583 0.583s0.261 0.583 0.583 0.583h10.882c0.322 0 0.583-0.261 0.583-0.583s-0.261-0.583-0.583-0.583z"></path>
<path fill="#5db7d4" d="M14.614 11.223h-13.992c-0.322 0-0.583 0.261-0.583 0.583s0.261 0.583 0.583 0.583h13.992c0.322 0 0.583-0.261 0.583-0.583s-0.261-0.583-0.583-0.583z"></path>
<path fill="#808080" d="M18.468 4.824h-0.708v-2.842c0-0.339 0.008-0.608 0.024-0.807-0.046 0.048-0.103 0.101-0.17 0.16s-0.292 0.243-0.676 0.554l-0.355-0.449 1.295-1.018h0.59v4.402z"></path>
</svg>
