<?xml version="1.0" encoding="utf-8"?>
<!-- Generated by IcoMoon.io -->
<!DOCTYPE svg PUBLIC "-//W3C//DTD SVG 1.1//EN" "http://www.w3.org/Graphics/SVG/1.1/DTD/svg11.dtd">
<svg version="1.1" xmlns="http://www.w3.org/2000/svg" xmlns:xlink="http://www.w3.org/1999/xlink" viewBox="0 0 43 32">
<path fill="#814697" d="M25.241 31.944c-8.807 0-15.972-7.165-15.972-15.972 0-3.493 1.107-6.811 3.202-9.594l0.621 0.467c-1.992 2.648-3.046 5.804-3.046 9.127 0 8.378 6.816 15.194 15.195 15.194 2.229 0 4.376-0.471 6.381-1.401l0.327 0.705c-2.109 0.977-4.366 1.473-6.708 1.473z"></path>
<path fill="#814697" d="M35.074 4.387c-2.74-2.328-6.232-3.61-9.832-3.61-0.496 0-0.996 0.024-1.486 0.072l-0.075-0.774c0.515-0.050 1.041-0.075 1.562-0.075 3.785 0 7.455 1.348 10.336 3.795l-0.504 0.592z"></path>
<path fill="#5db7d4" d="M38.322 6.365h-17.101c-1.179 0-2.138 0.959-2.138 2.138v17.101c0 1.178 0.959 2.138 2.138 2.138h17.101c1.179 0 2.138-0.959 2.138-2.138v-17.101c0-1.179-0.959-2.138-2.138-2.138zM39.294 25.603c0 0.536-0.436 0.972-0.972 0.972h-15.935v-7.968c0-1.072 0.872-1.943 1.943-1.943h0.777c1.072 0 1.943 0.872 1.943 1.943v1.555c0 1.5 1.22 2.721 2.721 2.721h1.555c1.5 0 2.721-1.22 2.721-2.721v-6.057l2.446 2.446c0.076 0.076 0.175 0.114 0.275 0.114s0.199-0.038 0.275-0.114c0.152-0.152 0.152-0.398 0-0.55l-3.109-3.109c-0.018-0.018-0.038-0.034-0.060-0.049-0.010-0.007-0.020-0.011-0.031-0.017-0.012-0.006-0.023-0.014-0.037-0.019s-0.026-0.009-0.040-0.012c-0.011-0.003-0.021-0.008-0.033-0.010-0.050-0.010-0.102-0.010-0.152 0-0.011 0.002-0.022 0.006-0.033 0.010-0.013 0.004-0.027 0.007-0.040 0.012s-0.024 0.012-0.037 0.019c-0.010 0.006-0.021 0.010-0.030 0.017-0.021 0.014-0.041 0.030-0.060 0.049l-3.109 3.109c-0.152 0.152-0.152 0.398 0 0.55s0.398 0.152 0.549 0l2.446-2.445v6.057c0 1.072-0.872 1.943-1.943 1.943h-1.555c-1.072 0-1.943-0.872-1.943-1.943v-1.555c0-1.5-1.22-2.721-2.721-2.721h-0.777c-1.5 0-2.721 1.22-2.721 2.721v7.968h-0.389c-0.536 0-0.972-0.436-0.972-0.972v-17.101c0-0.536 0.436-0.972 0.972-0.972h17.101c0.536 0 0.972 0.436 0.972 0.972v17.101z"></path>
<path fill="#5db7d4" d="M24.605 10.948c-0.151-0.152-0.398-0.152-0.55 0l-0.891 0.891-0.891-0.891c-0.151-0.152-0.398-0.152-0.55 0s-0.152 0.398 0 0.55l0.891 0.891-0.891 0.891c-0.152 0.152-0.152 0.398 0 0.55 0.076 0.076 0.175 0.114 0.275 0.114s0.199-0.038 0.275-0.114l0.891-0.891 0.891 0.891c0.076 0.076 0.175 0.114 0.275 0.114s0.199-0.038 0.275-0.114c0.152-0.152 0.152-0.398 0-0.55l-0.891-0.891 0.891-0.891c0.152-0.152 0.152-0.398 0-0.55z"></path>
<path fill="#5db7d4" d="M26.548 22.608c-0.151-0.152-0.398-0.152-0.55 0l-0.891 0.891-0.891-0.891c-0.151-0.152-0.398-0.152-0.55 0s-0.152 0.398 0 0.55l0.891 0.891-0.891 0.891c-0.152 0.152-0.152 0.398 0 0.55 0.076 0.076 0.175 0.114 0.275 0.114s0.199-0.038 0.275-0.114l0.891-0.891 0.891 0.891c0.076 0.076 0.175 0.114 0.275 0.114s0.199-0.038 0.275-0.114c0.152-0.152 0.152-0.398 0-0.55l-0.891-0.891 0.891-0.891c0.152-0.152 0.152-0.398 0-0.55z"></path>
<path fill="#5db7d4" d="M29.108 17.944c-0.152 0.152-0.152 0.398 0 0.55l0.891 0.891-0.891 0.891c-0.152 0.152-0.152 0.398 0 0.55 0.076 0.076 0.175 0.114 0.275 0.114s0.199-0.038 0.275-0.114l0.891-0.891 0.891 0.891c0.076 0.076 0.175 0.114 0.275 0.114s0.199-0.038 0.275-0.114c0.152-0.152 0.152-0.398 0-0.55l-0.891-0.891 0.891-0.891c0.152-0.152 0.152-0.398 0-0.55s-0.398-0.152-0.55 0l-0.891 0.891-0.891-0.891c-0.152-0.152-0.398-0.152-0.55 0z"></path>
<path fill="#5db7d4" d="M38.208 21.053c-0.151-0.152-0.398-0.152-0.55 0l-0.891 0.891-0.891-0.891c-0.151-0.152-0.398-0.152-0.55 0s-0.152 0.398 0 0.55l0.891 0.891-0.891 0.891c-0.152 0.152-0.152 0.398 0 0.55 0.076 0.076 0.175 0.114 0.275 0.114s0.199-0.038 0.275-0.114l0.891-0.891 0.891 0.891c0.076 0.076 0.175 0.114 0.275 0.114s0.199-0.038 0.275-0.114c0.152-0.152 0.152-0.398 0-0.55l-0.891-0.891 0.891-0.891c0.152-0.152 0.152-0.398 0-0.55z"></path>
<path fill="#5db7d4" d="M33.682 8.15c-1.065 0-1.931 0.866-1.931 1.931s0.866 1.931 1.931 1.931 1.931-0.866 1.931-1.931-0.866-1.931-1.931-1.931zM33.682 11.235c-0.636 0-1.154-0.518-1.154-1.154s0.518-1.154 1.154-1.154c0.636 0 1.154 0.518 1.154 1.154s-0.518 1.154-1.154 1.154z"></path>
<path fill="#808080" d="M16.403 2.948c0-1.722 0.702-2.583 2.105-2.583 0.221 0 0.407 0.017 0.56 0.051v0.59c-0.153-0.044-0.329-0.066-0.53-0.066-0.472 0-0.826 0.126-1.063 0.379s-0.365 0.658-0.385 1.216h0.036c0.094-0.163 0.227-0.289 0.397-0.378s0.371-0.134 0.602-0.134c0.4 0 0.711 0.122 0.933 0.367s0.334 0.577 0.334 0.997c0 0.462-0.129 0.827-0.387 1.094s-0.61 0.402-1.055 0.402c-0.315 0-0.589-0.076-0.822-0.227s-0.412-0.372-0.538-0.662c-0.126-0.29-0.188-0.639-0.188-1.046zM17.938 4.3c0.243 0 0.43-0.078 0.562-0.235s0.197-0.38 0.197-0.671c0-0.253-0.062-0.452-0.185-0.596s-0.309-0.217-0.555-0.217c-0.153 0-0.293 0.033-0.422 0.098s-0.23 0.155-0.304 0.268c-0.074 0.113-0.112 0.229-0.112 0.348 0 0.283 0.077 0.521 0.231 0.715s0.349 0.29 0.588 0.29z"></path>
</svg>
