<?xml version="1.0" encoding="utf-8"?>
<!-- Generated by IcoMoon.io -->
<!DOCTYPE svg PUBLIC "-//W3C//DTD SVG 1.1//EN" "http://www.w3.org/Graphics/SVG/1.1/DTD/svg11.dtd">
<svg version="1.1" xmlns="http://www.w3.org/2000/svg" xmlns:xlink="http://www.w3.org/1999/xlink" viewBox="0 0 43 32">
<path fill="#814697" d="M25.241 31.944c-8.807 0-15.972-7.165-15.972-15.972 0-3.261 0.976-6.397 2.823-9.069l0.64 0.442c-1.757 2.542-2.685 5.525-2.685 8.627 0 8.378 6.816 15.194 15.194 15.194s15.194-6.816 15.194-15.194c0-8.378-6.816-15.195-15.194-15.195-0.503 0-1.011 0.025-1.509 0.074l-0.076-0.774c0.523-0.052 1.057-0.078 1.585-0.078 8.807 0 15.972 7.165 15.972 15.972s-7.165 15.972-15.971 15.972z"></path>
<path fill="#5db7d4" d="M28.994 13.533v-5.808h0.089c0.75 0 1.36-0.61 1.36-1.36s-0.61-1.36-1.36-1.36h-6.219c-0.75 0-1.36 0.61-1.36 1.36s0.61 1.36 1.36 1.36h0.299v5.808l-1.943 2.773v-4.5h0.089c0.75 0 1.36-0.61 1.36-1.36s-0.61-1.36-1.36-1.36h-4.664c-0.75 0-1.36 0.61-1.36 1.36s0.61 1.36 1.36 1.36h0.3v10.599l-0.368 0.45c-0.584 0.876-0.729 1.753-0.36 2.442s1.125 1.084 2.177 1.084h15.158c1.053 0 1.835-0.395 2.203-1.084s0.303-1.558-0.288-2.445l-6.473-9.319zM16.452 10.446c0-0.107 0.087-0.194 0.194-0.194h4.664c0.107 0 0.194 0.087 0.194 0.194s-0.087 0.194-0.194 0.194h-4.664c-0.107 0-0.194-0.087-0.194-0.194zM20.055 11.806v6.163l-1.943 2.773v-2.912h0.866c0.215 0 0.389-0.174 0.389-0.389s-0.174-0.389-0.389-0.389h-0.866v-2.332h0.866c0.215 0 0.389-0.174 0.389-0.389s-0.174-0.389-0.389-0.389h-0.866v-2.138h1.943zM22.67 6.365c0-0.107 0.087-0.194 0.194-0.194h6.219c0.107 0 0.194 0.087 0.194 0.194s-0.087 0.194-0.194 0.194h-6.219c-0.107 0-0.194-0.087-0.194-0.194zM24.18 14.051c0.069-0.098 0.15-0.215 0.15-0.335v-5.992h3.498v5.992c0 0.12-0.016 0.253 0.053 0.351l3.39 4.929h-10.595l0.35-0.509v-0l3.154-4.436zM34.728 24.746c-0.154 0.287-0.582 0.468-1.175 0.468h-15.158c-0.593 0-1.021-0.181-1.175-0.468s-0.053-0.743 0.268-1.226l0.413-0.593c0 0 0 0.014 0 0.014l1.958-2.78h12.23l2.363 3.364c0.328 0.494 0.429 0.934 0.275 1.221z"></path>
<path fill="#808080" d="M17.884 2.075c0.444 0 0.795 0.117 1.054 0.352s0.388 0.555 0.388 0.96c0 0.47-0.147 0.837-0.441 1.1s-0.712 0.396-1.254 0.396c-0.492 0-0.878-0.079-1.159-0.238v-0.641c0.163 0.093 0.349 0.164 0.56 0.214s0.407 0.075 0.587 0.075c0.319 0 0.562-0.071 0.729-0.214s0.25-0.351 0.25-0.626c0-0.526-0.335-0.789-1.006-0.789-0.094 0-0.211 0.010-0.349 0.029s-0.26 0.041-0.364 0.065l-0.316-0.187 0.169-2.15h2.288v0.629h-1.665l-0.099 1.090c0.070-0.012 0.156-0.026 0.258-0.042s0.225-0.024 0.372-0.024z"></path>
</svg>
