<?xml version="1.0" encoding="utf-8"?>
<!-- Generated by IcoMoon.io -->
<!DOCTYPE svg PUBLIC "-//W3C//DTD SVG 1.1//EN" "http://www.w3.org/Graphics/SVG/1.1/DTD/svg11.dtd">
<svg version="1.1" xmlns="http://www.w3.org/2000/svg" xmlns:xlink="http://www.w3.org/1999/xlink" viewBox="0 0 34 32">
<path fill="#54af30" d="M32.106 20.566c0.608-2.448 0.58-5.031-0.056-7.47l-0.181-0.685-0.018 0.005c-1.462-4.624-5.101-8.287-9.708-9.788l0.005-0.018-0.677-0.185c-2.536-0.693-5.264-0.715-7.808-0.044l-0.687 0.18 0.005 0.018c-4.662 1.466-8.353 5.144-9.839 9.798l-0.018-0.005-0.182 0.683c-0.675 2.562-0.678 5.277 0.015 7.836l0.184 0.68 0.018-0.005c1.497 4.635 5.183 8.296 9.835 9.755l-0.005 0.018 0.688 0.18c2.55 0.654 5.239 0.645 7.781-0.044l0.678-0.185-0.005-0.018c4.597-1.493 8.23-5.139 9.704-9.745l0.018 0.005 0.183-0.682c0.026-0.094 0.048-0.189 0.071-0.284 0.036-0.143-0.018 0.072 0 0zM31.118 17.662c-0.031 0.716-0.13 1.436-0.283 2.136l-5.051-1.353c0.177-0.968 0.178-1.974 0.009-2.944l5.053-1.354c0.235 1.157 0.333 2.335 0.271 3.515-0.001 0.021 0.012-0.238 0 0zM30.485 12.782l-5.050 1.353c-0.834-2.348-2.68-4.22-5.011-5.089l1.354-5.052c4.122 1.368 7.377 4.649 8.707 8.788 0 0-1.33-4.139 0 0zM24.493 17.369c-0.139 2.299-1.437 4.422-3.414 5.604-0.484 0.289-1.002 0.52-1.54 0.684-0.321 0.098-0.65 0.173-0.983 0.224-0.315 0.048-0.598 0.045-0.913 0.035-0.634-0.020-1.241-0.010-1.862-0.166-0.546-0.137-1.075-0.341-1.572-0.605-2.077-1.103-3.499-3.229-3.706-5.575-0.207-2.347 0.802-4.678 2.652-6.135 0.879-0.693 1.94-1.19 3.045-1.384 0.292-0.051 0.585-0.091 0.881-0.108 0.002 0.008 0.004 0.016 0.005 0.025 0.001 0.041 0.028 0.049 0.082 0.024 0.077 0.004 0.153 0.017 0.229 0.027 0.174 0.023 0.336-0.012 0.509-0.020 0.632-0.029 1.303 0.128 1.908 0.341 2.137 0.752 3.823 2.542 4.434 4.725 0.209 0.748 0.29 1.53 0.244 2.304-0.002 0.038 0.008-0.14 0 0zM19.050 25.23l1.353 5.048c-1.847 0.402-3.827 0.446-5.677 0.034l1.354-5.055c0.979 0.166 1.994 0.155 2.97-0.028 0 0-0.029 0.005 0 0zM16.066 8.639l-1.354-5.054c1.878-0.395 3.83-0.367 5.704 0.034l-1.352 5.048c-0.986-0.188-2.008-0.197-2.997-0.029 0 0 0.030-0.005 0 0zM13.347 3.945l1.353 5.051c-2.386 0.84-4.284 2.723-5.141 5.101l-5.051-1.353c1.353-4.169 4.661-7.464 8.839-8.798 0 0-4.177 1.334 0 0zM9.147 15.763c-0.127 0.904-0.109 1.824 0.056 2.722l-5.050 1.353c-0.4-1.876-0.428-3.853-0.011-5.73l5.052 1.354c-0.017 0.1-0.033 0.201-0.047 0.302-0.009 0.062 0.010-0.073 0 0zM4.525 21.2l5.051-1.353c0.867 2.36 2.761 4.225 5.138 5.057l-1.354 5.051c-4.167-1.327-7.47-4.604-8.835-8.755 0 0 1.365 4.15 0 0zM21.764 29.905l-1.354-5.052c2.322-0.86 4.164-2.716 5.007-5.046l5.051 1.353c-1.341 4.12-4.592 7.384-8.704 8.744 0 0 4.112-1.36 0 0z"></path>
</svg>
