<?xml version="1.0" encoding="utf-8"?>
<!-- Generated by IcoMoon.io -->
<!DOCTYPE svg PUBLIC "-//W3C//DTD SVG 1.1//EN" "http://www.w3.org/Graphics/SVG/1.1/DTD/svg11.dtd">
<svg version="1.1" xmlns="http://www.w3.org/2000/svg" xmlns:xlink="http://www.w3.org/1999/xlink" viewBox="0 0 43 32">
<path fill="#814697" d="M25.241 31.944c-8.807 0-15.972-7.165-15.972-15.972 0-3.32 1.009-6.504 2.919-9.206l0.635 0.449c-1.816 2.57-2.777 5.599-2.777 8.758 0 8.378 6.816 15.194 15.195 15.194s15.194-6.816 15.194-15.194c0-8.378-6.816-15.194-15.194-15.194-0.559 0-1.123 0.031-1.676 0.091l-0.085-0.773c0.581-0.064 1.173-0.096 1.76-0.096 8.807 0 15.972 7.165 15.972 15.972s-7.165 15.972-15.972 15.972z"></path>
<path fill="#5db7d4" d="M31.327 22.596c-0.483-2.604-1.845-4.704-3.613-5.673 1.768-0.968 3.13-3.068 3.613-5.673 0.993-0.184 1.748-1.087 1.748-2.133 0-1.179-0.959-2.17-2.138-2.17h-10.883c-1.179 0-2.138 0.991-2.138 2.17 0 1.045 0.755 1.933 1.748 2.116 0.483 2.604 1.845 4.713 3.613 5.681-1.768 0.968-3.129 3.072-3.613 5.677-0.993 0.184-1.748 1.025-1.748 2.070 0 1.179 0.959 2.107 2.138 2.107h10.883c1.179 0 2.138-0.927 2.138-2.105 0-1.045-0.755-1.884-1.748-2.068zM19.083 9.085c0-0.536 0.436-0.972 0.972-0.972h10.883c0.536 0 0.972 0.436 0.972 0.972s-0.436 0.972-0.972 0.972h-10.883c-0.536 0-0.972-0.436-0.972-0.972zM24.836 17.542c0.271-0.056 0.466-0.262 0.466-0.539v-0.161c0-0.277-0.195-0.548-0.466-0.604-1.872-0.383-3.419-2.296-3.976-5.016h9.273c-0.557 2.721-2.104 4.634-3.976 5.016-0.271 0.056-0.466 0.327-0.466 0.604v0.161c0 0.277 0.195 0.483 0.466 0.539 1.872 0.383 3.419 2.425 3.976 4.952h-9.273c0.557-2.526 2.104-4.569 3.976-4.952zM30.937 25.603h-10.883c-0.536 0-0.972-0.436-0.972-0.972s0.436-0.972 0.972-0.972h10.882c0.536 0 0.972 0.436 0.972 0.972s-0.436 0.972-0.971 0.972z"></path>
<path fill="#808080" d="M19.209 1.434c0 0.279-0.081 0.511-0.244 0.697s-0.391 0.311-0.686 0.375v0.024c0.353 0.044 0.618 0.154 0.795 0.33s0.265 0.409 0.265 0.7c0 0.424-0.15 0.75-0.449 0.98s-0.725 0.345-1.277 0.345c-0.488 0-0.899-0.079-1.234-0.238v-0.629c0.187 0.092 0.384 0.164 0.593 0.214s0.409 0.075 0.602 0.075c0.341 0 0.596-0.063 0.765-0.19s0.253-0.322 0.253-0.587c0-0.235-0.093-0.407-0.28-0.518s-0.48-0.166-0.879-0.166h-0.382v-0.575h0.388c0.703 0 1.054-0.243 1.054-0.729 0-0.189-0.061-0.334-0.184-0.437s-0.303-0.154-0.542-0.154c-0.167 0-0.327 0.024-0.482 0.071s-0.337 0.139-0.548 0.276l-0.346-0.494c0.403-0.297 0.872-0.446 1.406-0.446 0.444 0 0.79 0.095 1.039 0.286s0.373 0.454 0.373 0.789z"></path>
</svg>
