<?xml version="1.0" encoding="utf-8"?>
<!-- Generated by IcoMoon.io -->
<!DOCTYPE svg PUBLIC "-//W3C//DTD SVG 1.1//EN" "http://www.w3.org/Graphics/SVG/1.1/DTD/svg11.dtd">
<svg version="1.1" xmlns="http://www.w3.org/2000/svg" xmlns:xlink="http://www.w3.org/1999/xlink" viewBox="0 0 34 32">
<path fill="#54af30" d="M33.647 12.471h-1.569v-1.647c0-0.39-0.394-0.706-0.784-0.706h-2.040v-2.588c0-0.39-0.394-0.706-0.784-0.706h-4.235c-0.39 0-0.628 0.316-0.628 0.706v4.706h-12.706v-4.706c0-0.39-0.394-0.706-0.784-0.706h-4.235c-0.39 0-0.628 0.316-0.628 0.706v2.588h-2.196c-0.39 0-0.628 0.316-0.628 0.706v1.647h-1.725c-0.39 0-0.628 0.316-0.628 0.706v3.294c0 0.39 0.238 0.706 0.628 0.706h1.725v1.176c0 0.39 0.238 0.706 0.628 0.706h2.196v2.588c0 0.39 0.238 0.706 0.628 0.706h4.235c0.39 0 0.784-0.316 0.784-0.706v-4.706h12.706v4.706c0 0.39 0.238 0.706 0.628 0.706h4.235c0.39 0 0.784-0.316 0.784-0.706v-2.588h2.039c0.39 0 0.784-0.316 0.784-0.706v-1.176h1.569c0.39 0 0.784-0.316 0.784-0.706v-3.294c0-0.39-0.394-0.706-0.784-0.706zM1.49 15.765v-1.882h0.941v1.882h-0.941zM3.843 17.647v-6.118h1.412v6.118h-1.412zM9.49 20.941h-2.824v-12.706h2.824v12.706zM10.902 15.529v-1.882h12.706v1.882h-12.706zM27.843 20.941h-2.824v-12.706h2.824v12.706zM30.667 17.647h-1.412v-6.118h1.412v6.118zM33.020 15.765h-0.941v-1.882h0.941v1.882z"></path>
</svg>
