<?xml version="1.0" encoding="utf-8"?>
<!-- Generated by IcoMoon.io -->
<!DOCTYPE svg PUBLIC "-//W3C//DTD SVG 1.1//EN" "http://www.w3.org/Graphics/SVG/1.1/DTD/svg11.dtd">
<svg version="1.1" xmlns="http://www.w3.org/2000/svg" xmlns:xlink="http://www.w3.org/1999/xlink" viewBox="0 0 43 32">
<path fill="#5db7d4" d="M39.682 7.531h-18.656c-1.179 0-2.138 0.959-2.138 2.138v12.437c0 1.178 0.959 2.138 2.138 2.138h8.745v1.943h-4.081c-0.322 0-0.583 0.261-0.583 0.583s0.261 0.583 0.583 0.583h9.328c0.322 0 0.583-0.261 0.583-0.583s-0.261-0.583-0.583-0.583h-4.081v-1.943h8.745c1.179 0 2.138-0.959 2.138-2.138v-12.437c0-1.179-0.959-2.138-2.138-2.138zM40.654 22.105c0 0.536-0.436 0.972-0.972 0.972h-18.656c-0.536 0-0.972-0.436-0.972-0.972v-12.437c0-0.536 0.436-0.972 0.972-0.972h18.656c0.536 0 0.972 0.436 0.972 0.972v12.437z"></path>
<path fill="#5db7d4" d="M39.099 9.668h-17.49c-0.322 0-0.583 0.261-0.583 0.583v10.299c0 0.322 0.261 0.583 0.583 0.583h17.49c0.322 0 0.583-0.261 0.583-0.583v-10.3c0-0.322-0.261-0.583-0.583-0.583zM38.516 19.968h-16.324v-9.134h16.324v9.134z"></path>
<path fill="#5db7d4" d="M30.743 22.105c0 0.215-0.174 0.389-0.389 0.389s-0.389-0.174-0.389-0.389c0-0.215 0.174-0.389 0.389-0.389s0.389 0.174 0.389 0.389z"></path>
<path fill="#5db7d4" d="M30.346 12c0.001 0 0.003 0 0.004 0s0.003-0 0.004-0h-0.008z"></path>
<path fill="#5db7d4" d="M31.294 17.128c-0.172-0.15-0.2-0.609-0.096-0.736 0.209-0.257 0.954-0.917 0.954-2.059 0-1.73-0.811-2.33-1.802-2.332-0.991 0.002-1.81 0.601-1.81 2.332 0 1.142 0.745 1.802 0.954 2.059 0.104 0.128 0.076 0.587-0.096 0.736-0.198 0.172-2.931 0.82-2.931 1.869h7.757c0-1.049-2.732-1.696-2.93-1.869z"></path>
<path fill="#808080" d="M19.375 4.824h-2.984v-0.536l1.135-1.141c0.335-0.343 0.558-0.587 0.667-0.73s0.189-0.279 0.239-0.405c0.050-0.127 0.075-0.262 0.075-0.407 0-0.198-0.060-0.355-0.179-0.47s-0.285-0.172-0.495-0.172c-0.169 0-0.332 0.031-0.489 0.093s-0.34 0.175-0.546 0.337l-0.382-0.467c0.245-0.207 0.483-0.353 0.714-0.44s0.477-0.129 0.738-0.129c0.409 0 0.738 0.107 0.984 0.321s0.37 0.501 0.37 0.863c0 0.199-0.036 0.387-0.107 0.566s-0.181 0.363-0.328 0.552-0.393 0.446-0.736 0.769l-0.765 0.741v0.030h2.089l-0 0.623z"></path>
<path fill="#814697" d="M25.205 32c-8.813 0-15.984-7.17-15.984-15.984 0-3.259 0.975-6.394 2.819-9.067l0.64 0.441c-1.754 2.543-2.681 5.525-2.681 8.626 0 8.385 6.822 15.206 15.206 15.206 2.484 0 4.949-0.612 7.127-1.77l0.365 0.686c-2.29 1.218-4.881 1.861-7.492 1.861z"></path>
<path fill="#814697" d="M36.239 5.553c-2.902-3.059-6.82-4.743-11.034-4.743-0.476 0-0.955 0.022-1.426 0.066l-0.072-0.774c0.494-0.046 0.998-0.069 1.498-0.069 4.43 0 8.549 1.771 11.599 4.986l-0.564 0.535z"></path>
</svg>
