<?xml version="1.0" encoding="utf-8"?>
<!-- Generator: Adobe Illustrator 16.0.0, SVG Export Plug-In . SVG Version: 6.00 Build 0)  -->
<!DOCTYPE svg PUBLIC "-//W3C//DTD SVG 1.1//EN" "http://www.w3.org/Graphics/SVG/1.1/DTD/svg11.dtd">
<svg version="1.1" id="Layer_1" xmlns="http://www.w3.org/2000/svg" xmlns:xlink="http://www.w3.org/1999/xlink" x="0px" y="0px"
	 width="960px" height="181.457px" viewBox="0 0 960 181.457" enable-background="new 0 0 960 181.457" xml:space="preserve">
<g>
	<path d="M108.476,52.126c10.137,9.607,15.207,23.176,15.207,40.707v0.465c0,0.266,0,0.576,0,0.93
		c-0.044,0.974-0.111,2.015-0.199,3.121c-0.266,3.41-0.797,6.796-1.594,10.16c-2.48,10.625-6.973,19.258-13.48,25.898
		c-8.988,9.164-22.844,13.68-41.57,13.547c-1.992-0.043-4.117,0.088-6.375,0.398c-2.613,0.309-5.025,0.797-7.238,1.461
		c-5.711,1.77-9.187,4.383-10.426,7.836v0.066c-1.019-6.154,0.375-11.199,4.184-15.141c3.32-3.408,7.836-5.445,13.547-6.109
		l4.98-0.465l5.18-0.332c4.338-0.354,7.836-0.752,10.492-1.195c8.145-1.371,14.321-4.184,18.527-8.434
		c5.047-5.135,8.543-11.975,10.492-20.52c0.62-2.7,1.04-5.422,1.262-8.168c0.043-0.84,0.088-1.66,0.133-2.457v-0.664v-0.266
		c0-14.122-3.785-24.77-11.355-31.941c-4.781-4.604-10.957-7.725-18.527-9.363c-2.391-0.487-4.781-0.797-7.172-0.93
		c-0.708-0.043-1.395-0.066-2.059-0.066h-0.598h-0.199H43.929l-0.066,0.73v80.02c0,6.818-3.697,11.512-11.09,14.078
		c-3.675,1.285-7.371,1.881-11.09,1.793c1.549-0.752,3.098-1.969,4.648-3.652c3.098-3.408,4.648-7.48,4.648-12.219v-80.02
		c0-2.612-0.488-4.87-1.461-6.773c-0.753-1.549-1.816-2.855-3.188-3.918c-1.55-1.195-3.099-1.903-4.648-2.125h31.543h-0.133h18.262
		c3.629-0.176,7.902,0.266,12.816,1.328C93.955,41.989,102.057,46.061,108.476,52.126z"/>
	<path d="M222.031,38.579v22.18c-0.222-1.549-0.93-3.098-2.125-4.648c-2.391-3.098-5.933-4.648-10.625-4.648h-46.352v38.25
		c0.266-0.531,0.62-1.04,1.063-1.527c0.62-0.708,1.372-1.328,2.258-1.859c2.434-1.461,5.645-2.191,9.629-2.191h23.973
		c4.87,0,8.788-1.549,11.754-4.648c1.461-1.549,2.457-3.098,2.988-4.648c0.62,3.719,0.531,7.416-0.266,11.09
		c-0.708,3.232-1.949,5.777-3.719,7.637c-2.302,2.302-5.402,3.453-9.297,3.453h-25.434c-3.984,0-7.195,1.063-9.629,3.188
		c-0.886,0.753-1.638,1.638-2.258,2.656c-0.443,0.753-0.797,1.527-1.063,2.324v28.953h47.148c2.567,0,4.825-0.486,6.773-1.461
		c1.549-0.752,2.833-1.814,3.852-3.188c1.195-1.549,1.926-3.098,2.191-4.648v22.18h-82.609c1.549-0.266,3.098-0.996,4.648-2.191
		c3.098-2.346,4.648-5.887,4.648-10.625V51.396c0-2.567-0.488-4.825-1.461-6.773c-0.797-1.504-1.859-2.789-3.188-3.852
		c-1.55-1.195-3.099-1.926-4.648-2.191H222.031z"/>
	<path d="M324.96,51.396c1.859-4.692,1.836-8.234-0.066-10.625c-0.974-1.195-2.125-1.926-3.453-2.191h30.746
		c-1.55,0.266-3.277,0.996-5.18,2.191c-3.852,2.391-6.707,5.933-8.566,10.625c-2.435,6.109-7.969,19.922-16.602,41.438
		c-7.66,19.037-13.215,32.828-16.668,41.371c-1.859,4.738-1.837,8.279,0.066,10.625c0.973,1.195,2.125,1.926,3.453,2.191h-26.563
		c1.328-0.266,2.479-0.996,3.453-2.191c1.948-2.346,1.969-5.887,0.066-10.625c-1.195-2.922-3.431-8.5-6.707-16.734
		c-1.24-3.098-2.833-7.039-4.781-11.82c-0.576-1.504-1.417-3.629-2.523-6.375l-2.59-6.441
		c-9.121-22.711-14.654-36.523-16.602-41.438c-1.063-2.567-2.435-4.825-4.117-6.773c-1.328-1.504-2.833-2.789-4.516-3.852
		c-1.904-1.195-3.63-1.926-5.18-2.191h30.813c-1.373,0.266-2.523,0.996-3.453,2.191c-1.949,2.391-1.97,5.933-0.066,10.625
		c0.797,2.037,2.567,6.508,5.313,13.414l0.93,2.191l0.93,2.324c0.708,1.816,1.35,3.453,1.926,4.914
		c1.549,3.808,2.965,7.283,4.25,10.426c7.348,18.373,12.727,31.809,16.137,40.309c3.409-8.5,8.809-21.936,16.203-40.309
		c1.239-3.143,2.633-6.618,4.184-10.426c0.575-1.461,1.217-3.098,1.926-4.914l0.93-2.324l0.93-2.191
		C322.326,57.903,324.119,53.432,324.96,51.396z"/>
	<path d="M443.03,43.626c4.516,2.878,8.367,4.715,11.555,5.512c1.063,0.266,1.971,0.398,2.723,0.398c0.266,0,0.51-0.022,0.73-0.066
		c0.133-0.043,0.221-0.088,0.266-0.133l-17.465,16.734c0.178-0.221,0.311-0.708,0.398-1.461c0.088-0.93,0.045-1.903-0.133-2.922
		c-0.531-2.833-2.08-5.18-4.648-7.039l-0.266-0.133l-0.266-0.133c-0.311-0.176-0.576-0.332-0.797-0.465
		c-0.709-0.398-1.416-0.774-2.125-1.129c-2.125-1.018-4.316-1.859-6.574-2.523c-6.906-2.081-13.989-2.391-21.25-0.93
		c-9.031,1.24-17.133,5.91-24.305,14.012c-7.748,8.677-11.488,18.395-11.223,29.152c-0.355,10.758,3.32,20.52,11.023,29.285
		c7.127,8.102,15.207,12.816,24.238,14.145c7.26,1.461,14.344,1.195,21.25-0.797c2.258-0.619,5.623-2.059,10.094-4.316
		c3.498-2.301,5.467-4.691,5.91-7.172c0.133-0.797,0.088-1.594-0.133-2.391c-0.088-0.266-0.199-0.508-0.332-0.73
		c-0.088-0.176-0.178-0.309-0.266-0.398l16.734,16.402c-0.045,0-0.154-0.021-0.332-0.066c-0.178-0.088-0.398-0.133-0.664-0.133
		c-0.797-0.043-1.727,0.045-2.789,0.266c-3.275,0.664-7.15,2.436-11.621,5.313c-5.756,2.879-10.115,4.76-13.082,5.645
		c-8.898,2.523-18.04,2.855-27.425,0.996c-11.599-1.727-22.003-7.836-31.211-18.328c-9.917-11.289-14.676-23.861-14.277-37.719
		c-0.31-13.901,4.516-26.473,14.477-37.719c9.297-10.403,19.766-16.424,31.41-18.063c9.385-1.859,18.504-1.461,27.359,1.195
		c2.967,0.886,5.822,1.992,8.566,3.32c0.93,0.443,1.859,0.93,2.789,1.461c0.311,0.133,0.643,0.31,0.996,0.531l0.398,0.199
		L443.03,43.626z"/>
	<path d="M524.843,35.657c7.614,0,14.919,1.505,21.914,4.516c6.773,2.878,12.771,6.951,17.996,12.219
		c11.023,11.201,16.535,24.681,16.535,40.441c0,7.703-1.483,15.098-4.449,22.18c-2.834,6.863-6.862,12.928-12.086,18.195
		c-5.225,5.27-11.223,9.342-17.996,12.219c-6.995,3.01-14.3,4.516-21.914,4.516c-7.659,0-14.986-1.506-21.98-4.516
		c-6.773-2.877-12.772-6.949-17.996-12.219c-11.023-11.199-16.535-24.658-16.535-40.375c0-7.747,1.482-15.163,4.449-22.246
		c2.877-6.817,6.906-12.883,12.086-18.195c5.224-5.268,11.223-9.34,17.996-12.219C509.856,37.163,517.184,35.657,524.843,35.657z
		 M524.843,137.657c12.219,0,22.688-4.383,31.41-13.148c8.677-8.766,13.016-19.324,13.016-31.676
		c0-12.395-4.339-22.977-13.016-31.742c-8.722-8.766-19.191-13.148-31.41-13.148c-12.264,0-22.733,4.383-31.41,13.148
		c-8.722,8.766-13.082,19.347-13.082,31.742c0,12.352,4.36,22.91,13.082,31.676C502.109,133.274,512.579,137.657,524.843,137.657z"
		/>
	<path d="M688.534,145.493c1.638,0.842,3.342,1.373,5.113,1.594c0.664,0.088,1.306,0.154,1.926,0.199
		c0.442,0,0.818-0.023,1.129-0.066h-0.066c-1.727,0.664-3.144,1.129-4.25,1.395c-1.506,0.398-3.033,0.686-4.582,0.863
		c-1.904,0.266-3.719,0.332-5.445,0.199c-4.428-0.266-8.213-1.617-11.355-4.051c-3.896-3.01-6.973-8.389-9.23-16.137
		c-0.886-4.117-3.055-8.92-6.508-14.41c-4.029-6.33-9.651-11.82-16.867-16.469c5.18,0.797,9.629,0.531,13.348-0.797
		c3.852-1.372,7.525-4.094,11.023-8.168c3.719-4.338,5.578-9.717,5.578-16.137c0-9.563-3.631-16.336-10.891-20.32
		c-2.391-1.284-5.047-2.191-7.969-2.723c-1.019-0.221-2.015-0.375-2.988-0.465c-0.398,0-0.753-0.022-1.063-0.066h-0.398h-24.371
		c0,0.222,0,28.333,0,84.336c0,4.693,1.527,8.234,4.582,10.625c1.549,1.195,3.099,1.926,4.648,2.191h-31.41
		c1.549-0.266,3.099-0.996,4.648-2.191c1.328-1.063,2.391-2.346,3.188-3.852c0.974-1.947,1.461-4.205,1.461-6.773V51.462
		c0-4.737-1.55-8.278-4.648-10.625c-1.55-1.195-3.1-1.926-4.648-2.191h46.285c3.408,0,6.928,0.531,10.559,1.594
		c4.25,1.24,8.057,3.078,11.422,5.512c8.588,6.287,12.883,15.539,12.883,27.758c0,6.199-1.639,12.308-4.914,18.328
		c-3.631,6.685-8.19,10.914-13.68,12.684c4.471,3.012,8.389,8.367,11.754,16.07c1.063,2.48,1.594,3.719,1.594,3.719
		s1.129,2.934,3.387,8.799C680.034,138.976,683.62,143.103,688.534,145.493z"/>
	<path d="M831.64,38.579c-1.55,0.266-3.1,0.996-4.648,2.191c-3.1,2.391-4.648,5.933-4.648,10.625v82.809
		c0,2.613,0.486,4.871,1.461,6.773c0.752,1.551,1.814,2.834,3.188,3.852c1.549,1.195,3.099,1.926,4.648,2.191h-31.477
		c1.15-0.797,2.08-1.836,2.789-3.121c1.505-2.611,1.35-5.156-0.465-7.637l-63.684-73.578v71.52c0,2.613,0.465,4.871,1.395,6.773
		c0.797,1.551,1.859,2.834,3.188,3.852c1.549,1.195,3.099,1.926,4.648,2.191h-31.41c1.549-0.266,3.099-0.996,4.648-2.191
		c3.099-2.346,4.648-5.887,4.648-10.625V51.396c0-2.567-0.487-4.825-1.461-6.773c-0.797-1.504-1.859-2.789-3.188-3.852
		c-1.55-1.195-3.1-1.926-4.648-2.191h31.41c-0.045,0.044-0.111,0.066-0.199,0.066c-0.133,0.089-0.311,0.222-0.531,0.398
		c-0.311,0.222-0.62,0.488-0.93,0.797c-0.842,0.841-1.483,1.75-1.926,2.723c-1.328,2.966-0.643,6.021,2.059,9.164l62.953,72.715
		V51.396c0-2.567-0.487-4.825-1.461-6.773c-0.753-1.504-1.815-2.789-3.188-3.852c-1.55-1.195-3.1-1.926-4.648-2.191H831.64z"/>
	<path d="M928.194,100.204c2.523,3.099,4.117,6.885,4.781,11.355c0.575,3.984,0.376,7.814-0.598,11.488
		c-1.461,6.996-5.246,12.906-11.355,17.73c-5.047,3.941-10.67,6.551-16.867,7.836c-10.537,2.08-20.077,1.15-28.621-2.789
		c-3.011-1.504-5.733-3.275-8.168-5.313c-0.753-0.664-1.527-1.395-2.324-2.191l-0.465-0.465l-0.398-0.398
		c-0.266-0.266-0.465-0.465-0.598-0.598c-3.586-3.984-6.619-6.574-9.098-7.77c-0.753-0.354-1.439-0.574-2.059-0.664
		c-0.178,0-0.354,0-0.531,0h-0.133l-0.133,0.066l16.137-12.617c-0.222,0.223-0.377,0.598-0.465,1.129
		c-0.089,0.709,0,1.506,0.266,2.391c0.619,2.48,2.368,5.336,5.246,8.566c0.31,0.355,0.664,0.73,1.063,1.129
		c0.531,0.531,1.106,1.063,1.727,1.594c1.682,1.373,3.541,2.547,5.578,3.52c5.932,2.746,12.661,3.344,20.188,1.793
		c4.338-0.354,8.256-2.102,11.754-5.246c3.364-3.055,5.556-6.641,6.574-10.758c1.063-4.383,0.509-8.389-1.66-12.02
		c-2.479-4.117-9.851-8.766-22.113-13.945c-12.264-5.18-20.608-9.805-25.035-13.879c-2.745-2.612-4.87-5.733-6.375-9.363
		c-1.506-3.807-2.059-7.592-1.66-11.355c0.619-7.215,4.184-13.082,10.691-17.598c9.518-5.489,19.08-7.327,28.688-5.512
		c3.01,0.576,6.064,1.505,9.164,2.789c0.531,0.222,1.084,0.465,1.66,0.73l0.664,0.332l0.664,0.266
		c0.885,0.443,1.461,0.687,1.727,0.73c4.825,2.701,8.876,4.472,12.152,5.313c1.15,0.266,2.103,0.398,2.855,0.398
		c0.31,0,0.553-0.022,0.73-0.066c0.177,0,0.287-0.022,0.332-0.066l-17.797,16.934c0.221-0.221,0.376-0.708,0.465-1.461
		c0.088-0.885,0.044-1.836-0.133-2.855c-0.531-2.745-2.015-5.002-4.449-6.773l-0.199-0.066l-0.266-0.133
		c-0.266-0.133-0.531-0.266-0.797-0.398c-0.709-0.309-1.439-0.62-2.191-0.93c-2.303-0.93-4.604-1.594-6.906-1.992
		c-7.084-1.284-13.37-0.221-18.859,3.188c-3.276,2.082-5.069,4.892-5.379,8.434c-0.354,3.675,1.084,7.105,4.316,10.293
		c2.789,2.746,10.802,7.216,24.039,13.414C917.259,90.598,925.316,95.866,928.194,100.204z"/>
</g>
</svg>
